<svg width="10" height="10" viewBox="0 0 10 10" fill="none" xmlns="http://www.w3.org/2000/svg">
<path fill-rule="evenodd" clip-rule="evenodd" d="M7.92495 1.52605V8.50001C7.92495 8.73473 7.73467 8.92501 7.49995 8.92501C7.26523 8.92501 7.07495 8.73473 7.07495 8.50001V1.52605L5.80047 2.80053C5.6345 2.96651 5.3654 2.96651 5.19943 2.80053C5.03346 2.63456 5.03346 2.36546 5.19943 2.19949L7.19943 0.199492C7.3654 0.0335188 7.6345 0.0335188 7.80047 0.199492L9.80047 2.19949C9.96644 2.36546 9.96644 2.63456 9.80047 2.80053C9.6345 2.96651 9.3654 2.96651 9.19943 2.80053L7.92495 1.52605ZM2.92495 1.50001C2.92495 1.26529 2.73467 1.07501 2.49995 1.07501C2.26523 1.07501 2.07495 1.26529 2.07495 1.50001V8.47397L0.800472 7.19949C0.634499 7.03352 0.365404 7.03352 0.199431 7.19949C0.033458 7.36546 0.033458 7.63456 0.199431 7.80053L2.19943 9.80053C2.3654 9.96651 2.6345 9.96651 2.80047 9.80053L4.80047 7.80053C4.96644 7.63456 4.96644 7.36546 4.80047 7.19949C4.6345 7.03352 4.3654 7.03352 4.19943 7.19949L2.92495 8.47397V1.50001Z" fill="#7C8DB5"/>
</svg>
