<svg width="18" height="20" viewBox="0 0 18 20" fill="none" xmlns="http://www.w3.org/2000/svg">
<path fill-rule="evenodd" clip-rule="evenodd" d="M3.8499 6.99999C3.8499 5.6811 4.29049 4.39 5.1352 3.4397C5.96601 2.50505 7.23056 1.84999 8.99991 1.84999C10.7693 1.84999 12.0338 2.50505 12.8646 3.4397C13.7093 4.39 14.1499 5.6811 14.1499 6.99999C14.1499 8.25959 14.7765 9.1982 15.2541 9.91372L15.2927 9.97149C15.8109 10.7489 16.1499 11.2938 16.1499 12C16.1499 12.9742 15.4562 13.7578 14.0163 14.3363C12.5989 14.9058 10.7184 15.15 8.99991 15.15C7.28144 15.15 5.4009 14.9058 3.98347 14.3363C2.54363 13.7578 1.8499 12.9742 1.8499 12C1.8499 11.3065 2.17412 10.8297 2.69801 10.0754C3.20164 9.35038 3.8499 8.40784 3.8499 6.99999ZM8.99991 0.149994C6.76925 0.149994 5.0338 0.99494 3.86461 2.31028C2.70932 3.60998 2.1499 5.31888 2.1499 6.99999C2.1499 7.83352 1.79817 8.39099 1.30179 9.1056L1.23206 9.20566C0.762462 9.87845 0.149902 10.7561 0.149902 12C0.149902 14.0257 1.6784 15.2422 3.34968 15.9137C5.04336 16.5942 7.16282 16.85 8.99991 16.85C10.837 16.85 12.9564 16.5942 14.6501 15.9137C16.3214 15.2422 17.8499 14.0257 17.8499 12C17.8499 10.7404 17.2233 9.80179 16.7457 9.08627L16.7071 9.0285C16.1889 8.25107 15.8499 7.70621 15.8499 6.99999C15.8499 5.31888 15.2905 3.60999 14.1352 2.31028C12.966 0.994941 11.2306 0.149994 8.99991 0.149994ZM6.52841 17.2928C6.91593 17.0344 7.43844 17.1363 7.70094 17.5193L7.70727 17.5278C7.71635 17.5397 7.73404 17.5621 7.7602 17.5915C7.81311 17.6511 7.89686 17.7352 8.0099 17.82C8.23344 17.9876 8.55891 18.15 8.9999 18.15C9.44089 18.15 9.76636 17.9876 9.9899 17.82C10.1029 17.7352 10.1867 17.6511 10.2396 17.5915C10.2658 17.5621 10.2835 17.5397 10.2925 17.5278L10.2989 17.5193C10.5614 17.1363 11.0839 17.0344 11.4714 17.2928C11.862 17.5532 11.9675 18.0809 11.7071 18.4715L10.9999 18C11.7071 18.4715 11.7069 18.4718 11.7067 18.4721L11.7063 18.4728L11.7053 18.4742L11.7032 18.4774L11.6982 18.4847L11.6848 18.5038C11.6744 18.5184 11.6611 18.5367 11.6448 18.5581C11.6122 18.6009 11.5674 18.6566 11.5102 18.721C11.3964 18.8489 11.2302 19.0148 11.0099 19.18C10.5668 19.5123 9.89224 19.85 8.9999 19.85C8.10756 19.85 7.43303 19.5123 6.9899 19.18C6.76961 19.0148 6.60336 18.8489 6.4896 18.721C6.43243 18.6566 6.38763 18.6009 6.35504 18.5581C6.33871 18.5367 6.32537 18.5184 6.315 18.5038L6.30164 18.4847L6.2966 18.4774L6.2945 18.4742L6.29354 18.4728L6.29309 18.4721C6.29287 18.4718 6.29266 18.4715 6.9999 18L6.29266 18.4715C6.03226 18.0809 6.13781 17.5532 6.52841 17.2928Z" fill="black"/>
</svg>
