<svg width="20" height="20" viewBox="0 0 20 20" fill="none" xmlns="http://www.w3.org/2000/svg">
<path fill-rule="evenodd" clip-rule="evenodd" d="M1.8499 9.99999C1.8499 5.49887 5.49878 1.84999 9.9999 1.84999C14.501 1.84999 18.1499 5.49887 18.1499 9.99999C18.1499 14.5011 14.501 18.15 9.9999 18.15C5.49878 18.15 1.8499 14.5011 1.8499 9.99999ZM9.9999 0.149994C4.5599 0.149994 0.149902 4.55999 0.149902 9.99999C0.149902 15.44 4.5599 19.85 9.9999 19.85C15.4399 19.85 19.8499 15.44 19.8499 9.99999C19.8499 4.55999 15.4399 0.149994 9.9999 0.149994ZM9.1499 10C9.1499 10.4694 9.53046 10.85 9.9999 10.85C10.4693 10.85 10.8499 10.4694 10.8499 10V6.00001C10.8499 5.53056 10.4693 5.15001 9.9999 5.15001C9.53046 5.15001 9.1499 5.53056 9.1499 6.00001V10ZM9.99991 12.35C9.36479 12.35 8.84991 12.8649 8.84991 13.5C8.84991 14.1351 9.36479 14.65 9.99991 14.65C10.635 14.65 11.1499 14.1351 11.1499 13.5C11.1499 12.8649 10.635 12.35 9.99991 12.35Z" fill="#7C8DB5"/>
</svg>
