<svg width="20" height="20" viewBox="0 0 20 20" fill="none" xmlns="http://www.w3.org/2000/svg">
<path fill-rule="evenodd" clip-rule="evenodd" d="M1.8499 9.99999C1.8499 7.99114 1.85016 6.45417 1.91129 5.26228C1.97321 4.05473 2.09496 3.30104 2.28911 2.81568C2.45852 2.39214 2.66909 2.20038 2.99548 2.07345C3.3962 1.91761 4.00375 1.84999 4.9999 1.84999C5.97371 1.84999 6.65314 1.91173 7.12801 2.01725C7.60137 2.12244 7.80439 2.25656 7.89886 2.35103C7.98311 2.43528 8.0545 2.56044 8.09897 2.82723C8.14749 3.11838 8.1499 3.47843 8.1499 3.99999C8.1499 4.46944 8.53046 4.84999 8.9999 4.84999C9.46935 4.84999 9.8499 4.46944 9.8499 3.99999L9.84991 3.95742V3.95741C9.84998 3.49111 9.85005 2.99303 9.77584 2.54775C9.6953 2.06455 9.5167 1.56471 9.10094 1.14895C8.69541 0.743424 8.14844 0.502545 7.49679 0.357735C6.84666 0.213262 6.0261 0.149994 4.9999 0.149994C3.99606 0.149994 3.10361 0.207374 2.37932 0.48904C1.58072 0.799609 1.04128 1.35785 0.710697 2.18431C0.404841 2.94895 0.276592 3.94526 0.213518 5.17521C0.149902 6.41571 0.149902 7.99583 0.149902 9.97552V9.97571V9.99999V10.0243V10.0245C0.149902 12.0042 0.149902 13.5843 0.213518 14.8248C0.276592 16.0547 0.404841 17.051 0.710697 17.8157C1.04128 18.6421 1.58072 19.2004 2.37932 19.5109C3.10361 19.7926 3.99606 19.85 4.9999 19.85C6.0261 19.85 6.84666 19.7867 7.49679 19.6423C8.14844 19.4974 8.69541 19.2566 9.10094 18.851C9.5167 18.4353 9.6953 17.9354 9.77584 17.4522C9.85005 17.007 9.84998 16.5089 9.84991 16.0426V16.0426L9.8499 16C9.8499 15.5306 9.46935 15.15 8.9999 15.15C8.53046 15.15 8.1499 15.5306 8.1499 16C8.1499 16.5216 8.14749 16.8816 8.09897 17.1728C8.0545 17.4395 7.98311 17.5647 7.89886 17.649C7.80439 17.7434 7.60137 17.8775 7.12801 17.9827C6.65314 18.0883 5.97371 18.15 4.9999 18.15C4.00375 18.15 3.3962 18.0824 2.99548 17.9265C2.66909 17.7996 2.45852 17.6078 2.28911 17.1843C2.09496 16.699 1.97321 15.9453 1.91129 14.7377C1.85016 13.5458 1.8499 12.0088 1.8499 9.99999ZM15.6009 5.39895C15.269 5.06701 14.7308 5.06701 14.3989 5.39895C14.0669 5.7309 14.0669 6.26909 14.3989 6.60103L16.9478 9.14999H8.9999C8.53046 9.14999 8.1499 9.53055 8.1499 9.99999C8.1499 10.4694 8.53046 10.85 8.9999 10.85H16.9478L14.3989 13.399C14.0669 13.7309 14.0669 14.2691 14.3989 14.601C14.7308 14.933 15.269 14.933 15.6009 14.601L19.6009 10.601C19.9329 10.2691 19.9329 9.7309 19.6009 9.39895L15.6009 5.39895Z" fill="#FF3B30"/>
</svg>
