<svg width="20" height="21" viewBox="0 0 20 21" fill="none" xmlns="http://www.w3.org/2000/svg">
<path fill-rule="evenodd" clip-rule="evenodd" d="M4.60531 5.51379C6.19349 6.05876 7.8568 4.96491 8.15228 3.45576C8.33394 2.67141 8.54716 2.32841 8.7587 2.15286C8.9629 1.98341 9.31124 1.85 10.068 1.85C10.6537 1.85 10.986 1.9973 11.2031 2.20131C11.4367 2.42074 11.6531 2.81471 11.783 3.52742L11.783 3.52743L11.7839 3.53189C11.9392 4.35916 12.5088 4.98299 13.1708 5.32811C13.8347 5.6742 14.6676 5.7832 15.4528 5.50677C15.4637 5.50292 15.4745 5.49886 15.4853 5.49457C16.2385 5.19431 16.6478 5.20025 16.8979 5.28469C17.1438 5.36774 17.4258 5.59081 17.7748 6.18205C18.1315 6.78636 18.1784 7.10881 18.1375 7.32686C18.0946 7.55515 17.9136 7.89271 17.2771 8.42089L17.2655 8.43073C15.9883 9.52986 15.9883 11.4701 17.2655 12.5693L17.2771 12.5791C17.9136 13.1073 18.0946 13.4449 18.1375 13.6731C18.1784 13.8912 18.1315 14.2136 17.7748 14.818C17.4278 15.4058 17.1415 15.6392 16.8818 15.7328C16.6165 15.8284 16.1993 15.8428 15.4486 15.5868C13.9257 15.0535 12.076 15.9608 11.7816 17.6708C11.6508 18.4305 11.4404 18.7311 11.2525 18.8767C11.0498 19.0337 10.6967 19.15 9.96989 19.15C9.27027 19.15 8.91026 19.0198 8.6987 18.8501C8.49371 18.6856 8.28608 18.3694 8.15738 17.6662C7.86046 15.9591 6.01269 15.054 4.4912 15.5868C3.74043 15.8428 3.32324 15.8284 3.05802 15.7328C2.79828 15.6392 2.51197 15.4058 2.16498 14.818C2.16023 14.8099 2.15534 14.8019 2.15033 14.794C1.84527 14.3141 1.81336 13.9815 1.87794 13.7201C1.95052 13.4262 2.18739 13.0489 2.75663 12.5825L2.77243 12.5693C4.07165 11.4512 3.92896 9.51336 2.67797 8.52705C2.11037 7.97074 1.93316 7.61708 1.89198 7.36078C1.85278 7.11686 1.90908 6.78513 2.25588 6.19433C2.57394 5.69781 2.86752 5.48717 3.15509 5.39858C3.46386 5.30347 3.90798 5.30481 4.60531 5.51379ZM10.068 0.150002C9.15665 0.150002 8.32748 0.301596 7.67309 0.844642C7.02732 1.38052 6.70217 2.1744 6.49204 3.08984C6.48951 3.10089 6.4872 3.11198 6.48511 3.12311C6.37905 3.68782 5.70753 4.09965 5.14963 3.90324C5.13768 3.89903 5.12564 3.89509 5.11351 3.89142C4.25 3.63017 3.4229 3.53726 2.65462 3.77392C1.86505 4.01715 1.27784 4.5639 0.813752 5.29403C0.808736 5.30192 0.80385 5.3099 0.799097 5.31795C0.367339 6.04946 0.081249 6.80733 0.213505 7.63047C0.343255 8.43801 0.846859 9.12064 1.52862 9.78069C1.55383 9.80509 1.58052 9.82792 1.60855 9.84902C2.07852 10.2029 2.11421 10.8861 1.66988 11.2752C0.96806 11.8521 0.423928 12.5173 0.227541 13.3124C0.0233684 14.139 0.233426 14.9423 0.707994 15.6939C1.14484 16.4308 1.69099 17.0473 2.48185 17.3322C3.2711 17.6165 4.12873 17.5071 5.04408 17.1943L5.0441 17.1944L5.05151 17.1918C5.68659 16.9682 6.38498 17.3908 6.48282 17.9592L6.48278 17.9592L6.48428 17.9674C6.65001 18.8766 6.98171 19.6521 7.63496 20.1762C8.282 20.6952 9.09949 20.85 9.96989 20.85C10.8131 20.85 11.6374 20.7288 12.2934 20.2208C12.964 19.7014 13.2934 18.9095 13.457 17.9592C13.5548 17.3908 14.2532 16.9682 14.8883 17.1918L14.8883 17.1918L14.8957 17.1943C15.811 17.5071 16.6687 17.6165 17.4579 17.3322C18.253 17.0458 18.8008 16.4242 19.2388 15.6821C19.6671 14.9564 19.9636 14.1863 19.8083 13.3594C19.6554 12.5452 19.1034 11.8868 18.3695 11.2765C17.8869 10.8565 17.8869 10.1435 18.3695 9.72346C19.1034 9.11323 19.6554 8.45484 19.8083 7.64064C19.9636 6.81369 19.6671 6.04364 19.2388 5.31795C18.8028 4.57919 18.2508 3.94727 17.4418 3.67406C16.6426 3.40414 15.7827 3.54865 14.8748 3.90786C14.5836 4.00576 14.245 3.97099 13.9567 3.82065C13.6627 3.6674 13.4964 3.43703 13.455 3.21979C13.2904 2.31865 12.9672 1.52618 12.3673 0.962442C11.7503 0.382705 10.9542 0.150002 10.068 0.150002ZM7.84995 10.5C7.84995 9.31259 8.81254 8.35 9.99995 8.35C11.1874 8.35 12.15 9.31259 12.15 10.5C12.15 11.6874 11.1874 12.65 9.99995 12.65C8.81254 12.65 7.84995 11.6874 7.84995 10.5ZM9.99995 6.65C7.87366 6.65 6.14995 8.3737 6.14995 10.5C6.14995 12.6263 7.87366 14.35 9.99995 14.35C12.1263 14.35 13.85 12.6263 13.85 10.5C13.85 8.3737 12.1263 6.65 9.99995 6.65Z" fill="#7C8DB5"/>
</svg>
