<svg width="12" height="12" viewBox="0 0 12 12" fill="none" xmlns="http://www.w3.org/2000/svg">
<path d="M3.21375 0.796707C3.06297 0.947483 2.97061 1.15701 2.97091 1.38711L2.97091 1.48839C2.97091 1.94919 3.34394 2.32223 3.80415 2.32164L8.35707 2.32164L0.655317 10.0234C0.330048 10.3487 0.330048 10.8766 0.655317 11.2019C0.980586 11.5272 1.50856 11.5272 1.83383 11.2019L9.53558 3.50015V8.05307C9.53558 8.51387 9.90862 8.8869 10.3688 8.88631H10.4701C10.9309 8.88631 11.3039 8.51328 11.3034 8.05307V1.38711C11.3034 0.926316 10.9303 0.55328 10.4701 0.553869L3.80415 0.553869C3.57375 0.553869 3.36452 0.645931 3.21375 0.796707Z" fill="#34C759"/>
</svg>
