<svg width="19" height="19" viewBox="0 0 19 19" fill="none" xmlns="http://www.w3.org/2000/svg">
<path fill-rule="evenodd" clip-rule="evenodd" d="M3.8499 5.49999C3.8499 3.7603 5.26021 2.34999 6.9999 2.34999C8.7396 2.34999 10.1499 3.7603 10.1499 5.49999C10.1499 7.23969 8.7396 8.64999 6.9999 8.64999C5.26021 8.64999 3.8499 7.23969 3.8499 5.49999ZM6.9999 0.649994C4.32132 0.649994 2.1499 2.82141 2.1499 5.49999C2.1499 8.17858 4.32132 10.35 6.9999 10.35C9.67848 10.35 11.8499 8.17858 11.8499 5.49999C11.8499 2.82141 9.67848 0.649994 6.9999 0.649994ZM1.8499 15.4167C1.8499 15.0136 2.17855 14.4979 3.21827 14.0388C4.2078 13.6018 5.58414 13.35 6.9999 13.35C8.39561 13.35 9.77079 13.6431 10.7678 14.1047C11.2668 14.3357 11.6327 14.5912 11.8629 14.8378C12.0845 15.0752 12.1475 15.2656 12.1498 15.4085C12.1418 15.43 12.105 15.4981 11.9626 15.6088C11.7442 15.7786 11.3796 15.9616 10.8649 16.127C9.84447 16.4549 8.4362 16.65 6.9999 16.65C5.3014 16.65 3.90326 16.4521 2.9612 16.1316C2.48754 15.9704 2.18096 15.7955 2.00759 15.6425C1.84883 15.5024 1.84976 15.4286 1.8499 15.4174L1.8499 15.4167ZM12.1518 15.401C12.152 15.401 12.1518 15.403 12.1505 15.4068C12.1509 15.4029 12.1516 15.401 12.1518 15.401ZM6.9999 11.65C5.41567 11.65 3.792 11.927 2.53154 12.4837C1.32125 13.0181 0.149902 13.9607 0.149902 15.4167C0.149902 16.0456 0.467454 16.5507 0.882837 16.9172C1.2876 17.2744 1.82476 17.5406 2.4136 17.741C3.59654 18.1435 5.1984 18.35 6.9999 18.35C8.5636 18.35 10.1553 18.1406 11.385 17.7455C11.9952 17.5494 12.5682 17.2913 13.0059 16.951C13.4403 16.6133 13.8499 16.1034 13.8499 15.4167C13.8499 14.7271 13.536 14.1389 13.1057 13.6778C12.6796 13.2213 12.108 12.8518 11.482 12.562C10.229 11.9819 8.6042 11.65 6.9999 11.65ZM13.1538 9.41846C13.1989 8.95119 13.6142 8.60888 14.0814 8.65391C15.2956 8.77092 16.4221 9.08653 17.2733 9.57878C18.0977 10.0555 18.8499 10.82 18.8499 11.8733C18.8499 12.4192 18.641 12.917 18.2348 13.3126C17.8518 13.6855 17.3291 13.9349 16.7317 14.1043C16.2801 14.2323 15.8102 13.97 15.6821 13.5183C15.5541 13.0667 15.8164 12.5968 16.2681 12.4687C16.7157 12.3418 16.9429 12.1978 17.0487 12.0947C17.1313 12.0143 17.1499 11.9536 17.1499 11.8733C17.1499 11.7166 17.0327 11.4034 16.4223 11.0504C15.8388 10.713 14.9652 10.447 13.9184 10.3461C13.4511 10.301 13.1088 9.88574 13.1538 9.41846ZM14.9999 0.649994C14.5305 0.649994 14.1499 1.03055 14.1499 1.49999C14.1499 1.96944 14.5305 2.34999 14.9999 2.34999C15.9112 2.34999 16.6499 3.08872 16.6499 3.99999C16.6499 4.91126 15.9112 5.64999 14.9999 5.64999C14.5305 5.64999 14.1499 6.03055 14.1499 6.49999C14.1499 6.96944 14.5305 7.34999 14.9999 7.34999C16.8501 7.34999 18.3499 5.85015 18.3499 3.99999C18.3499 2.14984 16.8501 0.649994 14.9999 0.649994Z" fill="#347AE2"/>
</svg>
